<?xml version="1.0" encoding="UTF-8" standalone="no"?>
<svg
   xmlns:dc="http://purl.org/dc/elements/1.1/"
   xmlns:cc="http://creativecommons.org/ns#"
   xmlns:rdf="http://www.w3.org/1999/02/22-rdf-syntax-ns#"
   xmlns:svg="http://www.w3.org/2000/svg"
   xmlns="http://www.w3.org/2000/svg"
   id="svg1657"
   version="1.1"
   viewBox="0 0 132.29166 132.29167"
   height="500"
   width="500">
  <defs
     id="defs1651">
    <clipPath
       id="clipPath938"
       clipPathUnits="userSpaceOnUse">
      <path
         id="path936"
         d="M 0,792 H 612 V 0 H 0 Z" />
    </clipPath>
  </defs>
  <metadata
     id="metadata1654">
    <rdf:RDF>
      <cc:Work
         rdf:about="">
        <dc:format>image/svg+xml</dc:format>
        <dc:type
           rdf:resource="http://purl.org/dc/dcmitype/StillImage" />
        <dc:title></dc:title>
      </cc:Work>
    </rdf:RDF>
  </metadata>
  <g
     transform="translate(0,-164.70832)"
     id="layer1">
    <g
       style="fill:#ffffff;stroke:#ffffff"
       id="g932"
       transform="matrix(0.20958779,0,0,-0.20958779,1.166985,315.16202)">
      <g
         style="fill:#ffffff;stroke:#ffffff"
         clip-path="url(#clipPath938)"
         id="g934">
        <g
           style="fill:#ffffff;stroke:#ffffff"
           transform="translate(438.7558,462.944)"
           id="g940">
          <path
             id="path942"
             style="fill:#ffffff;fill-opacity:1;fill-rule:nonzero;stroke:#ffffff"
             d="M 0,0 1.382,-10.419 43.304,23.45 34.086,78.411 -30.436,86.262 -51.375,68.427 c 3.633,-2.5 7.075,-5.184 10.288,-8.053 l -5.064,-4.116 c -20.497,18.304 -50.746,28.801 -82.993,28.801 -32.246,0 -62.496,-10.497 -82.992,-28.801 l -5.065,4.115 c 3.35,2.992 6.945,5.786 10.75,8.375 l -20.561,17.514 -62.954,-7.66 -10.786,-55.152 40.947,-34.88 1.516,11.43 6.956,-0.67 -18.336,-138.247 47.384,-50.115 v 27.002 l 6.226,1.87 86.915,-91.923 86.915,91.923 6.226,-1.87 v -27.002 L 11.381,-138.918 -6.955,-0.67 Z" />
        </g>
        <g
           style="fill:#ffffff;stroke:#ffffff"
           transform="translate(395.7528,266.5086)"
           id="g944">
          <path
             id="path946"
             style="fill:#ffffff;fill-opacity:1;fill-rule:nonzero;stroke:#ffffff"
             d="m 0,0 v -24.05 h 7 v 31.453 0 z" />
        </g>
        <g
           style="fill:#ffffff;stroke:#ffffff"
           transform="translate(216.4711,273.9123)"
           id="g948">
          <path
             id="path950"
             style="fill:#ffffff;fill-opacity:1;fill-rule:nonzero;stroke:#ffffff"
             d="M 0,0 V -31.454 H 7 V -7.403 Z" />
        </g>
        <g
           style="fill:#ffffff;stroke:#ffffff"
           transform="translate(235.1743,348.6495)"
           id="g952">
          <path
             id="path954"
             style="fill:#ffffff;fill-opacity:1;fill-rule:nonzero;stroke:#ffffff"
             d="m 0,0 74.438,106.222 75,-107.044 -50.334,-43.726 -5.871,-5.864 -8.795,-5.864 -13.356,0.167 -10.478,2.793 -10.5,7.916 z" />
        </g>
        <g
           style="fill:#ffffff;stroke:#ffffff"
           transform="translate(405.5598,462.6091)"
           id="g956">
          <path
             id="path958"
             style="fill:#ffffff;fill-opacity:1;fill-rule:nonzero;stroke:#ffffff"
             d="m 0,0 c 0,-12.797 -12.179,-23.171 -27.202,-23.171 -15.024,0 -27.203,10.374 -27.203,23.171 z" />
        </g>
        <g
           style="fill:#ffffff;stroke:#ffffff"
           transform="translate(212.5807,462.6091)"
           id="g960">
          <path
             id="path962"
             style="fill:#ffffff;fill-opacity:1;fill-rule:nonzero;stroke:#ffffff"
             d="m 0,0 c 0,-12.797 12.179,-23.171 27.202,-23.171 15.024,0 27.203,10.374 27.203,23.171 z" />
        </g>
        <g
           style="fill:#ffffff;stroke:#ffffff"
           transform="translate(278.9452,459.6278)"
           id="g964">
          <path
             id="path966"
             style="fill:#ffffff;fill-opacity:1;fill-rule:nonzero;stroke:#ffffff"
             d="m 0,0 h -69.75 v 5.963 h 57.642 l -24.634,13.236 3.734,5.044 34.875,-18.74 z" />
        </g>
        <g
           style="fill:#ffffff;stroke:#ffffff"
           transform="translate(408.9452,459.6278)"
           id="g968">
          <path
             id="path970"
             style="fill:#ffffff;fill-opacity:1;fill-rule:nonzero;stroke:#ffffff"
             d="m 0,0 h -69.75 l -1.867,5.503 34.875,18.74 3.734,-5.044 L -57.642,5.963 H 0 Z" />
        </g>
        <g
           style="fill:#ffffff;stroke:#ffffff"
           transform="translate(309.6119,310.2416)"
           id="g972">
          <path
             id="path974"
             style="fill:#ffffff;fill-opacity:1;fill-rule:nonzero;stroke:#ffffff"
             d="M 0,0 C 13.333,0 24.667,-6.14 24.667,-6.14 L 75,37.586 0,147.186 -75,37.586 -24.667,-6.14 c 0,0 11.334,6.14 24.667,6.14" />
        </g>
        <g
           style="fill:#ffffff;stroke:#ffffff"
           transform="translate(309.6119,310.2416)"
           id="g976">
          <path
             id="path978"
             style="fill:#ffffff;stroke:#ffffff;stroke-width:7;stroke-linecap:butt;stroke-linejoin:bevel;stroke-miterlimit:10;stroke-dasharray:none;stroke-opacity:1"
             d="M 0,0 C 13.333,0 24.667,-6.14 24.667,-6.14 L 75,37.586 0,147.186 -75,37.586 -24.667,-6.14 c 0,0 11.334,6.14 24.667,6.14 z" />
        </g>
        <g
           style="fill:#ffffff;stroke:#ffffff"
           transform="translate(340.8857,350.8074)"
           id="g980">
          <path
             id="path982"
             style="fill:#ffffff;fill-opacity:1;fill-rule:nonzero;stroke:#ffffff"
             d="M 0,0 -2.607,4.97 H -59.94 L -62.547,0 -34.773,-26.408 v -14.158 h 7 v 14.157 z" />
        </g>
        <g
           style="fill:#ffffff;stroke:#ffffff"
           transform="translate(284.9452,304.1014)"
           id="g984">
          <path
             id="path986"
             style="fill:#ffffff;stroke:#ffffff;stroke-width:7;stroke-linecap:butt;stroke-linejoin:bevel;stroke-miterlimit:10;stroke-dasharray:none;stroke-opacity:1"
             d="M 0,0 V 0 C 11.321,-15.638 38.012,-15.638 49.333,0 V 0" />
        </g>
        <g
           style="fill:#ffffff;stroke:#ffffff"
           transform="translate(179.4538,455.3028)"
           id="g988">
          <path
             id="path990"
             style="fill:#ffffff;fill-opacity:1;fill-rule:nonzero;stroke:#ffffff"
             d="m 0,0 -37.738,32.145 8.6,51.272 60.191,7.324 19.09,-16.261 c 1.784,1.296 3.617,2.547 5.501,3.748 l -20.879,17.784 -2.97,0.843 -64.522,-7.852 -2.97,-2.529 -9.218,-54.961 0.99,-2.53 42.92,-36.56 z" />
        </g>
        <g
           style="fill:#ffffff;stroke:#ffffff"
           transform="translate(476.3065,541.7764)"
           id="g992">
          <path
             id="path994"
             style="fill:#ffffff;fill-opacity:1;fill-rule:nonzero;stroke:#ffffff"
             d="M 0,0 -2.97,2.53 -67.492,10.381 -70.462,9.538 -91.7,-8.553 c 1.874,-1.208 3.696,-2.468 5.471,-3.772 l 19.479,16.593 60.191,-7.325 8.6,-51.272 -38.493,-32.788 1.005,-7.577 43.675,37.203 0.99,2.53 z" />
        </g>
        <g
           style="fill:#ffffff;stroke:#ffffff"
           transform="translate(204.1454,499.2287)"
           id="g996">
          <path
             id="path998"
             style="fill:#ffffff;fill-opacity:1;fill-rule:nonzero;stroke:#ffffff"
             d="m 0,0 -22.871,16.022 -4.446,-4.605 8.515,-5.965 -10.679,-1.683 1.273,-5.863 16.472,2.595 7.29,-5.106 z" />
        </g>
        <g
           style="fill:#ffffff;stroke:#ffffff"
           transform="translate(444.5595,502.9978)"
           id="g1000">
          <path
             id="path1002"
             style="fill:#ffffff;fill-opacity:1;fill-rule:nonzero;stroke:#ffffff"
             d="m 0,0 -10.679,1.682 8.516,5.966 -4.447,4.605 -22.871,-16.022 4.447,-4.605 7.289,5.106 16.472,-2.595 z" />
        </g>
        <g
           style="fill:#ffffff;stroke:#ffffff"
           transform="translate(206.4218,356.9738)"
           id="g1004">
          <path
             id="path1006"
             style="fill:#ffffff;fill-opacity:1;fill-rule:nonzero;stroke:#ffffff"
             d="m 0,0 -5.937,3.158 33.083,45.137 5.937,-3.157 z" />
        </g>
        <g
           style="fill:#ffffff;stroke:#ffffff"
           transform="translate(412.8017,356.9738)"
           id="g1008">
          <path
             id="path1010"
             style="fill:#ffffff;fill-opacity:1;fill-rule:nonzero;stroke:#ffffff"
             d="m 0,0 -33.083,45.138 5.937,3.157 L 5.937,3.158 Z" />
        </g>
        <g
           style="fill:#ffffff;stroke:#ffffff"
           transform="translate(249.8513,253.5109)"
           id="g1012">
          <path
             id="path1014"
             style="fill:#ffffff;stroke:#ffffff;stroke-width:7;stroke-linecap:butt;stroke-linejoin:bevel;stroke-miterlimit:10;stroke-dasharray:none;stroke-opacity:1"
             d="M 0,0 V -38.97" />
        </g>
        <g
           style="fill:#ffffff;stroke:#ffffff"
           transform="translate(279.7316,221.2274)"
           id="g1016">
          <path
             id="path1018"
             style="fill:#ffffff;stroke:#ffffff;stroke-width:7;stroke-linecap:butt;stroke-linejoin:bevel;stroke-miterlimit:10;stroke-dasharray:none;stroke-opacity:1"
             d="M 0,0 V -38.97" />
        </g>
        <g
           style="fill:#ffffff;stroke:#ffffff"
           transform="translate(309.6119,190.4557)"
           id="g1020">
          <path
             id="path1022"
             style="fill:#ffffff;stroke:#ffffff;stroke-width:7;stroke-linecap:butt;stroke-linejoin:bevel;stroke-miterlimit:10;stroke-dasharray:none;stroke-opacity:1"
             d="M 0,0 V -38.97" />
        </g>
        <g
           style="fill:#ffffff;stroke:#ffffff"
           transform="translate(369.3725,253.5109)"
           id="g1024">
          <path
             id="path1026"
             style="fill:#ffffff;stroke:#ffffff;stroke-width:7;stroke-linecap:butt;stroke-linejoin:bevel;stroke-miterlimit:10;stroke-dasharray:none;stroke-opacity:1"
             d="M 0,0 V -38.97" />
        </g>
        <g
           style="fill:#ffffff;stroke:#ffffff"
           transform="translate(339.4922,221.2274)"
           id="g1028">
          <path
             id="path1030"
             style="fill:#ffffff;stroke:#ffffff;stroke-width:7;stroke-linecap:butt;stroke-linejoin:bevel;stroke-miterlimit:10;stroke-dasharray:none;stroke-opacity:1"
             d="M 0,0 V -38.97" />
        </g>
        <g
           style="fill:#ffffff;stroke:#ffffff"
           transform="translate(353.3204,620.2345)"
           id="g1032">
          <path
             id="path1034"
             style="fill:#ffffff;fill-opacity:1;fill-rule:nonzero;stroke:#ffffff"
             d="m 0,0 -7.47,30.381 -4.709,2.41 -31.529,-12.727 -31.53,12.727 -4.707,-2.399 -7.574,-30.421 C -58.786,8.166 -28.737,8.176 0,0" />
        </g>
        <g
           style="fill:#ffffff;stroke:#ffffff"
           transform="translate(417.8495,600.0435)"
           id="g1036">
          <path
             id="path1038"
             style="fill:#ffffff;fill-opacity:1;fill-rule:nonzero;stroke:#ffffff"
             d="m 0,0 h -59.565 l -3.026,12.309 c -29.927,9.355 -61.499,9.342 -91.423,-0.04 L -157.069,0 h -58.86 l -3.5,-3.5 v -8.961 l 25.572,-10.838 27.227,11.54 h 2.732 l 27.082,-11.478 27.183,11.521 h 2.732 l 27.516,-11.662 27.515,11.662 h 2.731 L -21.622,-23.378 3.5,-12.731 V -3.5 Z" />
        </g>
        <g
           style="fill:#ffffff;stroke:#ffffff"
           transform="translate(394.8612,569.6417)"
           id="g1040">
          <path
             id="path1042"
             style="fill:#ffffff;fill-opacity:1;fill-rule:nonzero;stroke:#ffffff"
             d="M 0,0 -27.516,11.662 -55.03,0 h -2.733 L -85.278,11.662 -112.462,0.141 h -2.731 l -27.083,11.478 -27.227,-11.54 h -2.731 l -24.207,10.259 V -6.361 l 3.5,-3.5 H 22.988 l 3.5,3.5 V 10.068 L 2.732,0 Z" />
        </g>
      </g>
    </g>
  </g>
</svg>
