<?xml version="1.0" encoding="UTF-8" standalone="no"?>
<!-- Created with Inkscape (http://www.inkscape.org/) -->

<svg
   xmlns:dc="http://purl.org/dc/elements/1.1/"
   xmlns:cc="http://creativecommons.org/ns#"
   xmlns:rdf="http://www.w3.org/1999/02/22-rdf-syntax-ns#"
   xmlns:svg="http://www.w3.org/2000/svg"
   xmlns="http://www.w3.org/2000/svg"
   xmlns:sodipodi="http://sodipodi.sourceforge.net/DTD/sodipodi-0.dtd"
   xmlns:inkscape="http://www.inkscape.org/namespaces/inkscape"
   version="1.1"
   id="svg3767"
   width="300"
   height="300"
   viewBox="0 0 300 300"
   sodipodi:docname="somb.svg"
   inkscape:version="0.92.3 (2405546, 2018-03-11)">
  <metadata
     id="metadata3773">
    <rdf:RDF>
      <cc:Work
         rdf:about="">
        <dc:format>image/svg+xml</dc:format>
        <dc:type
           rdf:resource="http://purl.org/dc/dcmitype/StillImage" />
        <dc:title></dc:title>
      </cc:Work>
    </rdf:RDF>
  </metadata>
  <defs
     id="defs3771" />
  <sodipodi:namedview
     pagecolor="#ffffff"
     bordercolor="#666666"
     borderopacity="1"
     objecttolerance="10"
     gridtolerance="10"
     guidetolerance="10"
     inkscape:pageopacity="0"
     inkscape:pageshadow="2"
     inkscape:window-width="1366"
     inkscape:window-height="704"
     id="namedview3769"
     showgrid="false"
     inkscape:zoom="1.6666667"
     inkscape:cx="150"
     inkscape:cy="150"
     inkscape:window-x="0"
     inkscape:window-y="27"
     inkscape:window-maximized="1"
     inkscape:current-layer="svg3767" />
  <rect
     style="fill:#ed2517;fill-opacity:1;stroke-width:1.00301349"
     id="rect3867"
     width="300"
     height="300"
     x="-300"
     y="1.8369702e-14"
     transform="rotate(-90)" />
  <path
     style="fill:#000000"
     d="m 140.37526,246.6784 c -6.70888,-2.31878 -6.06823,-1.81878 -33.87206,-26.43601 -13.817405,-12.23379 -24.122203,-22.09701 -24.288025,-23.24725 -0.184269,-1.2782 11.392342,-19.10545 32.136695,-49.48849 31.50426,-46.14246 32.51631,-47.49059 35.65133,-47.49059 3.13502,0 4.14707,1.34813 35.65133,47.49059 20.74435,30.38304 32.32096,48.21029 32.13669,49.48849 -0.26908,1.86649 -44.45876,41.96775 -51.28802,46.54286 -3.9926,2.67476 -11.9047,4.98575 -16.9315,4.94541 -2.23768,-0.018 -6.37607,-0.83021 -9.19644,-1.80501 z m 19.53053,-6.74004 c 5.43129,-2.17317 5.85752,-4.00685 1.29314,-5.56309 -7.97853,-2.72031 -26.87033,-0.78075 -25.56359,2.62453 1.55914,4.06307 16.83698,5.91284 24.27045,2.93856 z m -20.40259,-12.15952 7,-1.87957 0.29734,-3.9837 c 0.28991,-3.88421 0.01,-4.26477 -11.21909,-15.23708 -6.33403,-6.18936 -11.77615,-11.67362 -12.09358,-12.18724 -0.31744,-0.51362 -0.0905,-1.84316 0.50427,-2.95452 1.04072,-1.9446 2.01989,-2.02067 26.01106,-2.02067 23.99117,0 24.97034,0.0761 26.01106,2.02067 0.59479,1.11136 0.82171,2.4409 0.50427,2.95452 -0.31743,0.51362 -5.75955,5.99788 -12.09358,12.18724 -11.2288,10.97231 -11.509,11.35287 -11.21909,15.23708 l 0.29734,3.9837 7,1.87957 c 3.85,1.03377 7.9,2.09832 9,2.36568 2.55464,0.62091 40,-31.62829 40,-34.44935 0,-2.64262 -57.6943,-87.07758 -59.5,-87.07758 -1.8057,0 -59.500002,84.43496 -59.500002,87.07758 0,2.82106 37.445362,35.07026 40.000002,34.44935 1.1,-0.26736 5.15,-1.33191 9,-2.36568 z M 57.203198,187.31606 c -0.66,-0.66 -1.189689,-1.6725 -1.177087,-2.25 0.0126,-0.5775 5.978648,-9.15 13.257879,-19.05 9.408245,-12.79553 13.884539,-18.09256 15.481558,-18.32014 5.103727,-0.72727 3.445291,2.82071 -9.847571,21.06748 -15.281603,20.97666 -15.286086,20.98135 -17.714779,18.55266 z m 182.241192,0.43374 c -0.58235,-0.40356 -7.04253,-8.94744 -14.35597,-18.9864 -13.10036,-17.98252 -14.66176,-21.24734 -10.16155,-21.24734 2.04054,0 5.70141,4.47862 21.55155,26.36563 6.12138,8.45284 7.64809,11.21533 6.87529,12.44048 -1.21482,1.92588 -2.50856,2.39834 -3.90932,1.42763 z M 79.185226,114.99661 c -5.655307,-2.45639 -9.14302,-5.481 -11.317518,-9.81476 -1.149617,-2.29119 -3.005478,-5.1651 -4.124135,-6.386475 -1.679403,-1.83361 -1.812693,-2.48725 -0.764704,-3.75 1.070426,-1.28978 4.805439,-1.52931 23.846774,-1.52931 16.653587,0 22.283927,-0.29363 21.458457,-1.1191 -0.61551,-0.61551 -4.41801,-2.99193 -8.450003,-5.28094 -7.352429,-4.17405 -8.697829,-6.01975 -5.745515,-7.882021 2.399441,-1.513529 29.284088,13.242241 29.752108,16.329601 0.43498,2.86937 -1.31621,3.91814 -6.57407,3.93715 -3.94233,0.0142 -4.34501,0.27482 -5.79773,3.751655 -2.16973,5.1929 -5.13485,8.13654 -10.96569,10.88623 -5.865008,2.7658 -15.987655,3.1732 -21.317974,0.85797 z M 198.5032,114.13864 c -5.83084,-2.74969 -8.79596,-5.69333 -10.96569,-10.88623 -1.42508,-3.410685 -1.90149,-3.736345 -5.46594,-3.736345 -5.40228,0 -7.06837,-0.832 -7.06837,-3.52973 0,-1.95114 2.2362,-3.52721 14.20273,-10.01002 10.68062,-5.786174 14.58643,-7.452228 15.75,-6.71827 2.93518,1.851461 1.52316,3.7717 -5.84924,7.95453 -4.06808,2.30808 -7.87058,4.67058 -8.45,5.25 -0.73799,0.73799 5.70809,1.05349 21.52407,1.05349 18.71287,0 22.78779,0.25332 23.80578,1.47993 1.00115,1.20631 0.74646,2.05247 -1.37756,4.57672 -1.43318,1.703235 -2.60578,3.582295 -2.60578,4.175675 0,2.44897 -5.28292,7.72976 -10.16838,10.16429 -7.04354,3.50994 -16.18015,3.59843 -23.33162,0.22596 z M 50.158897,65.922988 c -1.980611,-1.396078 -3.299287,-1.498338 -8.5,-0.659156 -3.385635,0.546302 -6.741991,0.769267 -7.458571,0.495477 -1.983405,-0.757817 -0.979452,-4.672378 1.302872,-5.080093 3.396798,-0.606805 3.958722,-1.971115 1.598893,-3.881989 -2.576209,-2.086087 -1.973165,-5.281162 0.996776,-5.281162 3.003226,0 19.071367,11.891014 18.700315,13.838919 -0.433764,2.277123 -3.806296,2.565606 -6.640285,0.568004 z m 193.510973,0.92641 c -0.36667,-0.366666 -0.66667,-1.244626 -0.66667,-1.951022 0,-1.704364 16.49668,-13.382311 18.90433,-13.382311 2.96994,0 3.57299,3.195075 0.99678,5.281162 -2.35983,1.910874 -1.79791,3.275184 1.59889,3.881989 2.3031,0.411426 3.27802,4.324319 1.26946,5.095074 -0.73496,0.282029 -3.97729,0.05777 -7.20519,-0.498356 -4.893,-0.843002 -6.3265,-0.740821 -8.62088,0.614498 -2.90793,1.717758 -5.17202,2.063669 -6.27672,0.958966 z"
     id="path3865"
     inkscape:connector-curvature="0" />
</svg>
