<?xml version="1.0" encoding="UTF-8" standalone="no"?>
<svg
   xmlns:dc="http://purl.org/dc/elements/1.1/"
   xmlns:cc="http://creativecommons.org/ns#"
   xmlns:rdf="http://www.w3.org/1999/02/22-rdf-syntax-ns#"
   xmlns:svg="http://www.w3.org/2000/svg"
   xmlns="http://www.w3.org/2000/svg"
   xmlns:sodipodi="http://sodipodi.sourceforge.net/DTD/sodipodi-0.dtd"
   xmlns:inkscape="http://www.inkscape.org/namespaces/inkscape"
   class="tw-svg__asset tw-svg__asset--star tw-svg__asset--inherit"
   width="13.999993"
   height="14.002517"
   version="1.1"
   viewBox="0 0 13.999993 14.002517"
   x="0px"
   y="0px"
   id="svg4"
   sodipodi:docname="sub.svg"
   inkscape:version="0.92.3 (2405546, 2018-03-11)">
  <metadata
     id="metadata10">
    <rdf:RDF>
      <cc:Work
         rdf:about="">
        <dc:format>image/svg+xml</dc:format>
        <dc:type
           rdf:resource="http://purl.org/dc/dcmitype/StillImage" />
      </cc:Work>
    </rdf:RDF>
  </metadata>
  <defs
     id="defs8" />
  <sodipodi:namedview
     pagecolor="#ffffff"
     bordercolor="#666666"
     borderopacity="1"
     objecttolerance="10"
     gridtolerance="10"
     guidetolerance="10"
     inkscape:pageopacity="0"
     inkscape:pageshadow="2"
     inkscape:window-width="776"
     inkscape:window-height="480"
     id="namedview6"
     showgrid="false"
     inkscape:zoom="11.8"
     inkscape:cx="6.9993914"
     inkscape:cy="7.0025165"
     inkscape:window-x="0"
     inkscape:window-y="27"
     inkscape:window-maximized="0"
     inkscape:current-layer="svg4" />
  <path
     d="m 13.899391,5.157 a 1.745,1.745 0 0 0 -1.378,-1.146 l -2.6189996,-0.416 -1.336,-2.663 c -0.287,-0.575 -0.887,-0.932 -1.564,-0.932 -0.677,0 -1.276,0.357 -1.564,0.932 l -1.336,2.663 -2.625,0.416 a 1.747,1.747 0 0 0 -1.37800002,1.147 1.758,1.758 0 0 0 0.353,1.76 l 1.86500002,2.061 -0.516,2.967 a 1.74,1.74 0 0 0 0.681,1.71 1.77,1.77 0 0 0 1.846,0.148 l 2.675,-1.383 2.678,1.384 a 1.731,1.731 0 0 0 1.8379996,-0.146 1.746,1.746 0 0 0 0.688,-1.712 l -0.519,-2.969 1.861,-2.064 a 1.75,1.75 0 0 0 0.35,-1.757"
     id="path2"
     style="fill:#ffffff;fill-rule:evenodd"
     inkscape:connector-curvature="0" />
</svg>
